PathFileType	4	(X/Y/Z)	T1_P1_Vision_NoMovement_1_0-649.trc
DataRate	CameraRate	NumFrames	NumMarkers	Units	OrigDataRate	OrigDataStartFrame	OrigNumFrames
60	60	5	27	m	60	0	649
Frame#	Time	RHip			RKnee			RAnkle			RBigToe			RSmallToe			RHeel			LHip			LKnee			LAnkle			LBigToe			LSmallToe			LHeel			Neck			Head			Nose			RShoulder			RElbow			RWrist			RThumb			RIndex			RPinky			LShoulder			LElbow			LWrist			LThumb			LIndex			LPinky		
		X1	Y1	Z1	X2	Y2	Z2	X3	Y3	Z3	X4	Y4	Z4	X5	Y5	Z5	X6	Y6	Z6	X7	Y7	Z7	X8	Y8	Z8	X9	Y9	Z9	X10	Y10	Z10	X11	Y11	Z11	X12	Y12	Z12	X13	Y13	Z13	X14	Y14	Z14	X15	Y15	Z15	X16	Y16	Z16	X17	Y17	Z17	X18	Y18	Z18	X19	Y19	Z19	X20	Y20	Z20	X21	Y21	Z21	X22	Y22	Z22	X23	Y23	Z23	X24	Y24	Z24	X25	Y25	Z25	X26	Y26	Z26	X27	Y27	Z27
1	0.016666666666666666	-65.81609705014013	3789.86165905336	-552.743122454139	283.2502372552034	3945.7062837429285	-525.5234812062134	639.4066027855827	4153.5937730119795	-532.3318834371756	689.5941379810095	3991.9058035851517	-440.6454947003598	689.0357911822126	3963.56318262564	-495.7884460922505	687.2152169928454	4195.150384910292	-537.2308979748427	-102.32982149972375	3905.895671849876	-364.1942755346007	235.94384472324572	4001.1440369180605	-370.7753505774151	631.2107377983654	4278.722173003432	-466.74190049232027	670.6646541165597	3997.4633468171896	-345.0489568632815	683.0148692009327	4127.825719506143	-344.7818436306042	683.9012611507166	4329.8937862895955	-503.3604175454882	-679.9297822496751	3686.5466261120173	-498.1239745696737	-922.3160498321886	3563.0459673215296	-436.8480652935232	-793.2156142705401	3574.536090648814	-402.3811669965513	-559.0334215592931	3653.2750930549414	-645.094018354672	-296.33011472940893	3718.244235164673	-702.3859841394386	-26.189537912684195	3643.0465062406333	-614.5134047040822	86.14634180914706	3742.4636045722496	-561.8495470918782	112.7306240600089	3721.881763815257	-557.9980400261338	101.64616928274266	3679.470236012374	-592.1581158466166	-623.0123402082558	3816.504625287266	-389.18882634911444	-386.3938604668582	3983.03696972926	-345.7943256204161	-127.98973075883471	3967.3547033090854	-246.8943391165993	9.992486397422129	3893.3428403065145	-263.97998044105515	20.271697971919114	3904.686275127872	-207.6211288571155	-1.2207362153510168	3975.4149984542514	-215.199687425868
2	0.03333333333333333	-66.40024785124139	3789.27653831272	-546.3359425540272	278.46055724030373	3972.6032644760844	-526.910830499484	638.8811124466248	4152.657390977229	-532.3988043202593	699.9037792272958	4043.768147059513	-462.15509633292726	682.5411142397639	3961.3123389882376	-494.8762242796253	676.8320688810677	4165.026115342927	-531.8120780349534	-107.30433828319234	3902.0584753532617	-362.5645163755614	235.83089356939095	4001.3891220425744	-370.96260530277266	630.9796256768299	4277.79205328158	-466.251107035204	675.7318586241873	4002.169976215704	-344.939114180057	682.5487365071933	4128.47816521986	-344.6792003676756	683.265521107973	4327.014763992541	-501.95325521998797	-679.8602477280799	3686.278115098546	-497.9639182981021	-922.0157493363478	3563.1753549486757	-436.75968678815457	-783.9435258986762	3578.2397413843387	-403.0806935453437	-560.7395697856156	3670.22100320397	-659.6223410738759	-296.15321813753667	3717.93031691858	-701.9996993382163	-26.087426777806744	3642.7489045436155	-614.2730062323667	86.7981577931869	3768.758619960662	-568.6086778943534	113.04680138163646	3720.397528928246	-562.7729104481973	101.13242782536632	3653.8718067561426	-585.6413740468084	-619.1344661035712	3790.611215224674	-383.6303407920407	-396.90144923600093	3977.595595025308	-345.1972176929001	-127.71562878208384	3987.5803189965545	-260.1712192387035	9.899302534562496	3894.569835684798	-264.14455716580824	19.889878891651282	3931.949545190457	-212.11355648156717	-6.950066869833794	3972.5621921395814	-215.59757252596953
3	0.05	-66.46760776351134	3789.489317227868	-546.4830974857545	278.4275599111491	3972.337952363034	-526.7498199122024	638.8455485353309	4152.514175962407	-532.2435307802934	699.873689485429	4044.099907427142	-462.4029571371923	688.6095712387047	3966.163941684485	-497.4830831354905	676.8129167034635	4164.705518019052	-531.5510844192071	-107.37929834328851	3902.4904650319945	-362.7979102861104	235.7972243569704	4001.756003138179	-371.0550769086537	625.7483236351267	4275.601601953821	-471.3255825082503	670.03317901887	3999.0007680640742	-345.6411090126112	674.859889401466	4123.763448827106	-342.6274812428539	672.4810052140831	4322.858979254806	-500.09465346312516	-679.8681293831071	3686.27562370863	-497.9288516640102	-922.1947773663883	3563.194743589626	-436.7840324025853	-788.4212739987847	3575.477932551096	-402.26709743095876	-558.9093945488386	3652.9454964517477	-644.9627467265774	-296.1912739126005	3717.8045571209077	-702.0061329827873	-26.27630547357708	3642.4911655397386	-614.0811037403138	86.51245676440811	3768.4034438855574	-568.1879140878696	112.80460609240025	3719.989623097538	-562.5453119330263	101.05948995770603	3653.932767963707	-585.4052412874172	-622.9939872061749	3816.6959505264763	-389.23107163227957	-391.80218655606933	3980.909712410461	-346.341788305718	-127.71584635823844	3987.675114887407	-260.18498920329824	8.640303496045437	3875.48517731209	-251.3743128395754	20.413810822241004	3931.6358705539083	-211.87744541751502	-6.82061110578373	3973.1460170897385	-215.82594560557268
4	0.06666666666666667	-66.43438686209406	3789.2014241407983	-546.209207864176	284.3398571407216	3974.5403129150013	-525.844616353707	638.9596146736633	4152.787068547061	-532.2703433291697	699.8868115641277	4043.555122397359	-462.03531802376995	688.7473882184552	3965.399683826243	-497.0580224641885	681.5972444465024	4195.257742881763	-538.1015231661785	-108.02821086363596	3900.416784177018	-355.99588478364274	235.9820591226112	4001.565748877755	-370.9265443629067	627.0947873628272	4257.13633315351	-458.28109963720567	670.2934414158726	3998.95105187428	-345.589742245092	676.6479004623662	4125.168369396707	-345.42510686019637	672.6443989809467	4323.487859987207	-500.41775853594186	-679.8246856744311	3686.2524258853846	-497.91473269911165	-922.1940567746138	3563.2774424851955	-436.8794369070032	-783.9156806076863	3578.27137594649	-403.1958336629324	-558.8798338353581	3652.898523230986	-644.9349203986613	-296.07252953301156	3717.8040519539622	-701.9750449299548	-26.21650368928508	3642.5971819930032	-614.1173298736975	86.49565798101625	3768.2401132318837	-568.0025167584691	106.62353451402228	3717.9707443014445	-556.2771420070931	101.03060965765395	3653.7682089890345	-585.2643429597273	-623.0278589549267	3816.615223558271	-389.22880087681665	-391.8656532769021	3980.8386095503415	-346.13817486239657	-127.78985897517028	3987.8310403278438	-260.24897187336285	9.969172688360535	3894.844690688657	-264.5031978492493	20.240220070002813	3932.2950116539855	-212.24431115953814	-6.892815886671835	3973.7549676184653	-215.99298516550522
5	0.08333333333333333	-66.50392950100736	3789.01630343334	-546.0915577082209	273.8078412973978	3922.5364390190225	-504.9558030242644	638.8142180306671	4152.550183473494	-532.0911510483562	687.9621303010847	3990.856854497786	-433.70958197761433	680.8645640673676	3959.7481066005794	-487.6552874489646	681.486304840036	4195.223661588332	-538.0044669085063	-107.43373593789904	3902.22002028607	-362.55922470366875	235.69072522215365	4001.3989682401	-370.871803643377	627.0368662284839	4256.916658038389	-458.4573377724295	669.6087444408057	4000.188883072518	-340.9460187160519	674.565978205649	4123.02163421425	-342.42083996818684	672.5611227896069	4323.388853292499	-500.23986256716245	-679.851453107575	3686.2470789508675	-497.9441113658927	-922.280516746207	3563.1572335861024	-436.84202135070547	-788.3797300578523	3575.190120946675	-402.25396150497886	-558.8752559669833	3652.8321984837044	-644.8838342957171	-296.1012942896661	3717.9646354943497	-702.0726699599667	-26.13948983094543	3642.7900075943708	-614.2618065165617	86.6745473437613	3768.186661678093	-568.0240068561225	112.80585267566019	3720.3746371991847	-562.6829840674943	101.21324718415738	3654.063560602339	-585.380507939356	-619.139322111122	3790.946007464692	-383.85150807413737	-391.9395238503764	3980.9795294813716	-346.1799843748177	-127.76085893923195	3987.830833594875	-260.2349581024269	9.925999835363866	3894.7215690455696	-264.438406023851	20.075963992032335	3932.3655376609895	-212.33380997871905	-6.851442641718424	3974.3992574673484	-216.3105328310986
